<?xml version="1.0" encoding="UTF-8" standalone="no"?>
<svg
   xmlns:dc="http://purl.org/dc/elements/1.1/"
   xmlns:cc="http://creativecommons.org/ns#"
   xmlns:rdf="http://www.w3.org/1999/02/22-rdf-syntax-ns#"
   xmlns:svg="http://www.w3.org/2000/svg"
   xmlns="http://www.w3.org/2000/svg"
   xmlns:sodipodi="http://sodipodi.sourceforge.net/DTD/sodipodi-0.dtd"
   xmlns:inkscape="http://www.inkscape.org/namespaces/inkscape"
   version="1.1"
   x="0px"
   y="0px"
   viewBox="0 0 90.001953 11.023068"
   enable-background="new 0 0 100 100"
   xml:space="preserve"
   id="svg961"
   sodipodi:docname="divider.svg"
   width="90.001953"
   height="11.023068"
   inkscape:version="1.0.2 (e86c870879, 2021-01-15)"><metadata
     id="metadata967"><rdf:RDF><cc:Work
         rdf:about=""><dc:format>image/svg+xml</dc:format><dc:type
           rdf:resource="http://purl.org/dc/dcmitype/StillImage" /><dc:title></dc:title></cc:Work></rdf:RDF></metadata><defs
     id="defs965" /><sodipodi:namedview
     pagecolor="#ffffff"
     bordercolor="#666666"
     borderopacity="1"
     objecttolerance="10"
     gridtolerance="10"
     guidetolerance="10"
     inkscape:pageopacity="0"
     inkscape:pageshadow="2"
     inkscape:window-width="1920"
     inkscape:window-height="1024"
     id="namedview963"
     showgrid="false"
     fit-margin-top="0"
     fit-margin-left="0"
     fit-margin-right="0"
     fit-margin-bottom="0"
     inkscape:zoom="4.6612479"
     inkscape:cx="44.599932"
     inkscape:cy="19.830281"
     inkscape:window-x="0"
     inkscape:window-y="32"
     inkscape:window-maximized="1"
     inkscape:current-layer="svg961" /><g
     id="g955"
     transform="translate(-4.9979192,-44.491957)"><g
       id="g953"><path
         fill="none"
         d="m 23.305,52.641 c -0.118,0.014 -0.229,0.036 -0.344,0.054 -0.343,0.196 -0.686,0.392 -1.021,0.601 -0.541,0.339 -1.055,0.756 -1.623,1.045 -0.096,0.049 -0.186,-0.067 -0.114,-0.147 0.408,-0.454 0.939,-0.857 1.507,-1.207 -1.234,0.394 -2.3,1.056 -3.314,1.956 2.047,0.215 4.018,-0.724 5.157,-2.45 -0.038,10e-4 -0.076,0.002 -0.115,0.003 -10e-4,0.067 -0.046,0.135 -0.133,0.145 z"
         id="path919" /><path
         fill="none"
         d="m 34.901,52.739 c 0.263,-0.577 0.629,-1.155 1.026,-1.668 -0.12,0.02 -0.24,0.04 -0.36,0.061 -1.134,0.749 -1.846,1.917 -1.953,3.29 1.267,-0.74 2.463,-1.72 2.571,-3.212 -0.379,0.544 -0.773,1.092 -1.181,1.608 -0.051,0.063 -0.131,-0.018 -0.103,-0.079 z"
         id="path921" /><path
         fill="none"
         d="m 25.101,49.153 c 1.113,1.014 2.453,1.626 3.923,1.839 -0.704,-0.405 -1.404,-0.819 -2.099,-1.238 -0.119,-0.072 -0.014,-0.248 0.108,-0.185 0.921,0.475 1.841,0.955 2.746,1.46 0.004,0.002 0.006,0.006 0.01,0.008 -0.888,-1.694 -2.907,-1.897 -4.688,-1.884 z"
         id="path923" /><path
         fill="none"
         d="m 42.291,49.173 c -0.941,-1.502 -2.688,-1.679 -4.312,-1.706 0.914,1.105 2.155,1.664 3.568,1.751 -0.621,-0.274 -1.233,-0.658 -1.7,-1.112 -0.068,-0.066 0.02,-0.177 0.1,-0.129 0.722,0.434 1.406,0.812 2.186,1.139 0.073,0.031 0.104,0.097 0.103,0.16 0.053,-0.009 0.107,-0.019 0.161,-0.028 -0.041,-0.008 -0.079,-0.031 -0.106,-0.075 z"
         id="path925" /><path
         fill="none"
         d="m 5.908,46.141 c 0.826,1 1.187,2.503 2.454,2.899 C 8.223,48.744 8.109,48.437 7.94,48.152 7.722,47.785 7.46,47.454 7.161,47.151 7.083,47.072 7.198,46.964 7.28,47.032 7.845,47.499 8.453,48.163 8.687,48.89 8.936,47.298 7.344,46.498 5.908,46.141 Z"
         id="path927" /><path
         fill="none"
         d="m 13.71,48.266 c 0.511,1.061 0.745,2.491 1.71,3.096 0.215,0.039 0.431,0.076 0.647,0.112 -0.487,-0.629 -0.905,-1.341 -1.33,-2 -0.053,-0.082 0.074,-0.181 0.135,-0.104 0.474,0.587 1.002,1.184 1.439,1.816 0.246,-1.268 -1.431,-2.312 -2.601,-2.92 z"
         id="path929" /><path
         fill="none"
         d="m 51.671,45.94 c 0.29,0.365 0.585,0.728 0.894,1.078 0.183,0.208 0.383,0.404 0.576,0.606 -0.412,-1.247 -1.109,-2.214 -2.365,-2.644 0.013,1.26 0.791,2.175 1.867,2.755 0.024,-0.002 0.048,-0.004 0.072,-0.007 -0.452,-0.516 -0.849,-1.117 -1.203,-1.665 -0.063,-0.096 0.087,-0.213 0.159,-0.123 z"
         id="path931" /><path
         fill="none"
         d="m 10.353,52.368 c 0.616,-0.505 1.347,-0.867 2.104,-1.125 -0.013,-0.003 -0.026,-0.004 -0.04,-0.011 -1.305,-0.663 -2.355,0.704 -3.322,1.58 1.529,0.231 3.273,0.221 3.949,-1.389 -0.913,0.263 -1.712,0.671 -2.529,1.155 -0.128,0.077 -0.282,-0.112 -0.162,-0.21 z"
         id="path933" /><path
         fill="none"
         d="m 47.981,50.823 c -0.099,0.056 -0.219,-0.088 -0.125,-0.162 0.661,-0.523 1.222,-1.069 1.723,-1.75 0.038,-0.051 0.089,-0.07 0.14,-0.071 -0.003,-0.02 -10e-4,-0.039 -0.005,-0.059 -0.085,0.011 -0.17,0.021 -0.255,0.032 -0.661,0.345 -1.293,0.659 -1.856,1.193 -0.482,0.457 -1.225,1.22 -1.354,1.907 -0.201,1.072 0.799,0.366 1.167,0.117 0.397,-0.269 0.747,-0.598 1.09,-0.931 0.544,-0.526 1.128,-1.107 1.218,-1.828 -0.474,0.614 -1.074,1.172 -1.743,1.552 z"
         id="path935" /><path
         fill="none"
         d="m 85.999,48.632 c -0.667,0.268 -1.281,0.587 -1.855,1.007 1.114,0.052 2.215,-0.355 2.944,-1.232 0.193,-0.232 0.346,-0.578 0.539,-0.867 -1.521,0.127 -3.375,0.514 -3.72,2.062 0.593,-0.527 1.27,-0.965 2.022,-1.226 0.163,-0.056 0.224,0.194 0.07,0.256 z"
         id="path937" /><path
         fill="none"
         d="m 93.997,51.237 c -0.854,-0.535 -2.324,-0.721 -3.292,-0.501 -0.462,0.105 -0.848,0.357 -1.249,0.568 0.009,-0.002 0.016,-0.006 0.026,-0.006 0.92,-0.025 1.806,-0.225 2.718,-0.295 0.173,-0.013 0.174,0.225 0.038,0.278 -0.845,0.328 -1.861,0.345 -2.756,0.323 -0.147,-0.004 -0.184,-0.169 -0.112,-0.256 -0.152,0.077 -0.306,0.146 -0.469,0.198 -0.007,0.008 -0.014,0.015 -0.021,0.022 0.905,0.868 2.132,0.694 3.304,0.432 0.447,-0.1 0.888,-0.231 1.334,-0.34 0.552,-0.134 1.129,-0.017 0.479,-0.423 z"
         id="path939" /><path
         fill="none"
         d="m 54.727,48.274 c 0.58,0.376 1.161,0.751 1.737,1.132 0.175,0.116 0.008,0.4 -0.164,0.281 -0.659,-0.457 -1.313,-0.92 -1.969,-1.382 -0.121,0.009 -0.242,0.018 -0.364,0.028 1.181,1.427 2.682,2.391 4.534,2.656 -0.944,-1.298 -2.166,-2.136 -3.628,-2.727 -0.048,0.004 -0.097,0.008 -0.146,0.012 z"
         id="path941" /><path
         fill="none"
         d="m 67.764,48.27 c 0.564,0.213 1.129,0.492 1.527,0.888 0.093,0.093 -0.026,0.237 -0.137,0.178 -0.343,-0.184 -0.646,-0.445 -0.984,-0.642 -0.312,-0.181 -0.638,-0.332 -0.971,-0.469 -0.098,-0.007 -0.196,-0.017 -0.294,-0.024 -0.108,-0.008 -0.216,-0.013 -0.324,-0.02 1.388,1.197 2.973,1.93 4.809,2.141 -0.817,-1.025 -1.887,-1.675 -3.127,-2.012 -0.167,-0.014 -0.333,-0.026 -0.499,-0.04 z"
         id="path943" /><path
         fill="none"
         d="m 62.702,45.936 c -0.56,0.291 -1.107,0.547 -1.636,0.856 0.397,-0.093 0.812,-0.124 1.24,-0.191 1.092,-0.17 1.961,-0.73 2.545,-1.628 -1.669,0.328 -3.367,0.822 -4.529,2.099 0.048,-0.027 0.097,-0.049 0.146,-0.073 0.623,-0.529 1.376,-1.04 2.155,-1.249 0.111,-0.029 0.183,0.133 0.079,0.186 z"
         id="path945" /><path
         fill="none"
         d="m 78.099,45.817 c -2.04,0.148 -4.16,0.397 -5.319,2.219 0.15,0.018 0.3,0.04 0.45,0.058 1.913,-0.051 3.593,-0.859 4.869,-2.277 z"
         id="path947" /><path
         fill="none"
         d="m 81.701,50.288 c 0.803,0.516 1.643,1.003 2.41,1.571 0.137,0.102 0.017,0.326 -0.137,0.235 -0.841,-0.5 -1.632,-1.104 -2.438,-1.657 -0.071,-0.049 -0.056,-0.14 -0.005,-0.182 -0.034,-0.007 -0.069,-0.013 -0.103,-0.02 0.263,0.766 0.907,1.305 1.564,1.808 0.452,0.345 2.031,1.596 2.522,1.057 0.673,-0.74 -2.612,-2.315 -3.569,-2.765 -0.082,-0.016 -0.163,-0.032 -0.244,-0.047 z"
         id="path949" /><path
         d="m 94.915,51.372 c -1.121,-0.428 -2.233,-0.939 -3.455,-0.96 -0.986,-0.017 -1.664,0.452 -2.52,0.704 -0.04,-0.055 -0.097,-0.102 -0.185,-0.124 -1.289,-0.32 -2.586,-0.617 -3.886,-0.902 0.555,-0.068 1.09,-0.252 1.582,-0.557 0.356,-0.221 0.677,-0.493 0.948,-0.813 0.197,-0.233 0.576,-1.089 0.925,-1.224 0.062,-0.003 0.126,-0.006 0.186,-0.009 0.301,-0.014 0.284,-0.418 0,-0.455 -0.1,-0.013 -0.19,-0.009 -0.273,0.01 -1.69,0.074 -4.793,0.466 -4.664,2.629 0.004,0.074 0.062,0.125 0.125,0.144 -10e-4,0.007 -0.003,0.013 -0.003,0.021 -3.08,-0.646 -6.187,-1.177 -9.309,-1.589 1.708,-0.227 3.285,-1.152 4.282,-2.618 0.099,-0.145 -0.136,-0.331 -0.247,-0.19 -0.056,0.07 -0.114,0.137 -0.171,0.205 -2.156,-0.094 -4.831,0.15 -5.795,2.36 -3.901,-0.447 -7.822,-0.686 -11.742,-0.673 0.866,-0.368 1.87,-0.269 2.743,-0.673 0.829,-0.383 1.438,-1.025 1.86,-1.826 0.069,-0.131 -0.044,-0.263 -0.182,-0.237 -2.003,0.372 -4.165,0.868 -5.367,2.668 -0.018,0.027 -0.024,0.052 -0.025,0.077 -2.078,0.029 -4.154,0.139 -6.227,0.318 0.002,-0.013 0.006,-0.025 0.004,-0.04 -0.129,-1.51 -1.481,-2.757 -2.887,-3.119 -0.136,-0.035 -0.252,0.065 -0.261,0.199 -0.078,1.177 0.551,2.517 1.613,3.099 -0.909,0.096 -1.818,0.206 -2.725,0.334 -2.259,0.318 -4.508,0.702 -6.754,1.099 0.074,-0.039 0.121,-0.126 0.065,-0.219 -1.08,-1.763 -3.166,-1.949 -5.049,-1.985 -0.159,-0.003 -0.283,0.191 -0.189,0.33 0.793,1.172 2.058,1.989 3.438,2.183 -3.489,0.624 -6.977,1.252 -10.492,1.7 -0.002,-0.007 -0.002,-0.014 -0.005,-0.022 -0.963,-2.221 -3.516,-2.444 -5.638,-2.425 -0.164,10e-4 -0.24,0.2 -0.131,0.317 1.293,1.384 3.01,2.187 4.881,2.241 -0.241,0.029 -0.482,0.063 -0.724,0.09 -3.977,0.438 -8.099,0.665 -12.079,0.112 0.803,-1.795 -1.987,-3.268 -3.242,-3.868 -0.144,-0.069 -0.363,0.087 -0.246,0.246 0.671,0.911 0.897,2.473 1.719,3.324 C 12.811,50.846 10.856,50.215 8.989,49.277 9.25,48.468 8.987,47.617 8.431,46.973 7.645,46.062 6.402,45.765 5.266,45.576 5.03,45.537 4.891,45.827 5.101,45.968 c 1.242,0.833 1.65,3.599 3.498,3.454 0.019,0.047 0.058,0.086 0.105,0.107 0.015,0.035 0.038,0.068 0.082,0.092 0.757,0.422 1.532,0.782 2.319,1.098 -1.037,0.337 -1.949,1.553 -2.839,2.025 -0.21,0.111 -0.175,0.48 0.069,0.527 1.721,0.335 4.588,0.455 5.024,-1.786 2.706,0.764 5.531,1.038 8.372,1.043 -1.544,0.38 -2.794,1.366 -4.102,2.412 -0.153,0.123 -0.063,0.394 0.115,0.435 2.457,0.569 5.019,-0.636 6.129,-2.89 0.697,-0.029 1.394,-0.069 2.089,-0.12 2.965,-0.219 5.905,-0.628 8.837,-1.105 -1.079,0.826 -1.734,2.176 -1.658,3.567 0.009,0.172 0.186,0.284 0.343,0.197 1.512,-0.846 3.297,-2.156 3.091,-4.059 3.013,-0.516 6.018,-1.083 9.031,-1.581 0.877,-0.145 1.754,-0.275 2.631,-0.399 -0.646,0.376 -1.226,0.896 -1.665,1.433 -0.373,0.455 -1.572,1.999 -0.728,2.558 0.907,0.599 2.454,-0.98 3.009,-1.523 0.73,-0.714 1.63,-1.669 1.31,-2.721 1.127,-0.138 2.253,-0.261 3.381,-0.361 1.154,1.867 3.261,2.964 5.425,3.123 0.165,0.012 0.284,-0.2 0.193,-0.336 -0.829,-1.234 -1.968,-2.309 -3.312,-2.965 3.393,-0.215 6.795,-0.241 10.223,-0.038 1.489,1.631 3.59,2.557 5.793,2.661 0.158,0.008 0.283,-0.195 0.189,-0.329 -0.61,-0.872 -1.4,-1.569 -2.312,-2.031 3.795,0.39 7.545,1.004 11.285,1.709 0.127,0.932 0.953,1.651 1.674,2.213 0.517,0.403 1.059,0.787 1.666,1.043 0.343,0.145 1.184,0.497 1.566,0.237 0.724,-0.493 -0.382,-1.529 -0.743,-1.851 -0.567,-0.504 -1.23,-0.894 -1.925,-1.214 1.732,0.341 3.464,0.693 5.199,1.046 1.374,2.047 4.672,0.649 6.451,-0.032 0.112,-0.048 0.112,-0.192 -10e-4,-0.235 z M 8.688,48.89 C 8.453,48.163 7.845,47.499 7.281,47.032 7.199,46.964 7.084,47.073 7.162,47.151 c 0.3,0.303 0.561,0.635 0.779,1.001 0.169,0.284 0.283,0.591 0.422,0.888 -1.267,-0.396 -1.629,-1.9 -2.454,-2.899 1.435,0.357 3.027,1.157 2.779,2.749 z m 0.407,3.923 c 0.967,-0.876 2.017,-2.243 3.322,-1.58 0.014,0.007 0.027,0.007 0.04,0.011 -0.757,0.258 -1.488,0.62 -2.104,1.125 -0.119,0.098 0.034,0.287 0.162,0.211 0.817,-0.484 1.615,-0.891 2.529,-1.155 -0.676,1.609 -2.42,1.619 -3.949,1.388 z m 7.216,-1.627 c -0.437,-0.632 -0.965,-1.229 -1.439,-1.816 -0.061,-0.076 -0.188,0.023 -0.135,0.104 0.425,0.658 0.844,1.371 1.33,2 -0.216,-0.035 -0.431,-0.073 -0.647,-0.112 -0.965,-0.605 -1.198,-2.035 -1.71,-3.096 1.17,0.608 2.847,1.652 2.601,2.92 z m 2.085,3.758 c 1.014,-0.9 2.08,-1.563 3.314,-1.956 -0.568,0.35 -1.098,0.752 -1.507,1.207 -0.072,0.08 0.018,0.196 0.114,0.147 0.568,-0.289 1.082,-0.706 1.623,-1.045 0.335,-0.21 0.678,-0.406 1.021,-0.601 0.115,-0.018 0.226,-0.04 0.344,-0.054 0.087,-0.01 0.133,-0.078 0.134,-0.144 0.038,-10e-4 0.076,-0.002 0.115,-0.003 -1.14,1.725 -3.111,2.665 -5.158,2.449 z M 29.78,51.03 c -0.905,-0.505 -1.825,-0.985 -2.746,-1.46 -0.122,-0.063 -0.227,0.113 -0.108,0.185 0.695,0.419 1.394,0.833 2.099,1.238 -1.47,-0.213 -2.811,-0.824 -3.923,-1.839 1.782,-0.013 3.8,0.19 4.689,1.885 -0.005,-0.003 -0.007,-0.007 -0.011,-0.009 z m 3.834,3.392 c 0.107,-1.374 0.819,-2.541 1.953,-3.29 0.12,-0.02 0.24,-0.04 0.36,-0.061 -0.397,0.513 -0.763,1.091 -1.026,1.668 -0.028,0.061 0.053,0.142 0.102,0.079 0.409,-0.516 0.803,-1.064 1.181,-1.608 -0.107,1.492 -1.303,2.472 -2.57,3.212 z m 8.621,-5.147 c 0,-0.064 -0.03,-0.13 -0.103,-0.16 -0.78,-0.327 -1.463,-0.704 -2.186,-1.139 -0.08,-0.048 -0.167,0.064 -0.1,0.129 0.468,0.454 1.08,0.839 1.7,1.112 -1.413,-0.087 -2.654,-0.645 -3.568,-1.751 1.624,0.027 3.371,0.204 4.312,1.706 0.027,0.044 0.065,0.066 0.105,0.074 -0.053,0.01 -0.107,0.02 -0.16,0.029 z m 6.271,1.824 c -0.344,0.332 -0.693,0.662 -1.09,0.931 -0.368,0.249 -1.368,0.955 -1.167,-0.117 0.129,-0.688 0.872,-1.45 1.354,-1.907 0.563,-0.534 1.195,-0.848 1.856,-1.193 0.085,-0.011 0.17,-0.022 0.255,-0.032 0.004,0.02 0.002,0.039 0.005,0.059 -0.051,10e-4 -0.103,0.02 -0.14,0.071 -0.501,0.681 -1.062,1.227 -1.723,1.75 -0.094,0.074 0.026,0.219 0.125,0.162 0.669,-0.38 1.269,-0.938 1.743,-1.552 -0.091,0.721 -0.674,1.302 -1.218,1.828 z m 3.005,-5.036 c 0.354,0.547 0.751,1.149 1.203,1.665 -0.024,0.002 -0.048,0.004 -0.072,0.007 -1.076,-0.58 -1.853,-1.495 -1.867,-2.755 1.256,0.43 1.953,1.396 2.365,2.644 -0.193,-0.201 -0.393,-0.398 -0.576,-0.606 -0.309,-0.35 -0.604,-0.712 -0.894,-1.078 -0.071,-0.09 -0.221,0.027 -0.159,0.123 z m 6.991,4.926 c -1.851,-0.265 -3.352,-1.229 -4.534,-2.656 0.121,-0.01 0.242,-0.019 0.364,-0.028 0.655,0.462 1.309,0.926 1.969,1.382 0.172,0.119 0.339,-0.166 0.164,-0.281 -0.577,-0.381 -1.157,-0.756 -1.737,-1.132 0.049,-0.004 0.098,-0.008 0.147,-0.011 1.461,0.59 2.683,1.428 3.627,2.726 z m 1.821,-3.916 c 1.161,-1.278 2.859,-1.772 4.529,-2.099 -0.585,0.898 -1.453,1.458 -2.545,1.628 -0.429,0.067 -0.843,0.098 -1.24,0.191 0.529,-0.309 1.076,-0.564 1.636,-0.856 0.103,-0.054 0.031,-0.215 -0.078,-0.186 -0.779,0.209 -1.532,0.72 -2.155,1.249 -0.05,0.023 -0.099,0.045 -0.147,0.073 z m 11.066,3.249 c -1.835,-0.211 -3.421,-0.945 -4.809,-2.141 0.108,0.007 0.216,0.012 0.324,0.02 0.098,0.007 0.196,0.016 0.294,0.024 0.333,0.136 0.659,0.287 0.971,0.469 0.339,0.197 0.641,0.458 0.984,0.642 0.111,0.059 0.23,-0.085 0.137,-0.178 -0.398,-0.396 -0.963,-0.674 -1.527,-0.888 0.166,0.014 0.333,0.026 0.499,0.04 1.24,0.337 2.31,0.987 3.127,2.012 z m 1.39,-2.286 c 1.16,-1.822 3.279,-2.072 5.319,-2.219 -1.275,1.418 -2.956,2.226 -4.87,2.278 -0.149,-0.019 -0.299,-0.041 -0.449,-0.059 z M 85.514,53.1 c -0.491,0.539 -2.07,-0.711 -2.522,-1.057 -0.658,-0.503 -1.301,-1.042 -1.564,-1.808 0.034,0.006 0.068,0.013 0.103,0.02 -0.051,0.041 -0.067,0.132 0.005,0.182 0.807,0.553 1.598,1.157 2.438,1.657 0.154,0.092 0.274,-0.133 0.137,-0.235 -0.767,-0.568 -1.606,-1.055 -2.41,-1.571 0.081,0.016 0.162,0.031 0.243,0.047 0.958,0.45 4.243,2.025 3.57,2.765 z m 0.414,-4.723 c -0.752,0.261 -1.429,0.699 -2.022,1.226 0.346,-1.548 2.199,-1.935 3.72,-2.062 -0.192,0.288 -0.346,0.635 -0.539,0.867 -0.729,0.876 -1.831,1.284 -2.944,1.232 0.575,-0.421 1.188,-0.74 1.855,-1.007 0.155,-0.063 0.094,-0.313 -0.07,-0.256 z m 7.59,3.284 c -0.446,0.108 -0.887,0.24 -1.334,0.34 -1.172,0.262 -2.399,0.436 -3.304,-0.432 0.007,-0.007 0.015,-0.014 0.021,-0.022 0.163,-0.051 0.318,-0.121 0.469,-0.198 -0.073,0.086 -0.036,0.252 0.112,0.256 0.895,0.022 1.91,0.004 2.756,-0.323 0.137,-0.053 0.135,-0.292 -0.038,-0.278 -0.911,0.07 -1.798,0.271 -2.718,0.295 -0.01,0 -0.017,0.004 -0.026,0.006 0.402,-0.212 0.787,-0.463 1.249,-0.568 0.967,-0.22 2.438,-0.034 3.292,0.501 0.65,0.405 0.073,0.288 -0.479,0.423 z"
         id="path951" /></g></g></svg>
